<svg xmlns="http://www.w3.org/2000/svg" xmlns:xlink="http://www.w3.org/1999/xlink" width="48" zoomAndPan="magnify" viewBox="0 0 36 36.000001" height="48" preserveAspectRatio="xMidYMid meet" version="1.0"><defs><clipPath id="168db16c63"><path d="M 0.488281 0 L 35.511719 0 L 35.511719 35.027344 L 0.488281 35.027344 Z M 0.488281 0 " clip-rule="nonzero"/></clipPath></defs><g clip-path="url(#168db16c63)"><path fill="#000000" d="M 31.058594 9.894531 L 33.679688 12.667969 C 33.730469 12.722656 33.78125 12.777344 33.835938 12.839844 C 34.960938 14.121094 35.515625 15.8125 35.511719 17.507812 C 35.511719 19.195312 34.949219 20.890625 33.84375 22.1875 C 33.796875 22.246094 33.742188 22.304688 33.6875 22.367188 L 31.136719 25.140625 C 30.957031 25.339844 30.714844 25.429688 30.480469 25.414062 C 30.027344 25.414062 29.597656 25.421875 29.199219 25.429688 C 28.386719 25.445312 27.667969 25.460938 26.933594 25.378906 C 26.289062 25.308594 25.792969 25.171875 25.296875 24.886719 C 24.820312 24.613281 24.382812 24.222656 23.839844 23.628906 C 23.515625 23.273438 23.121094 22.835938 22.703125 22.371094 C 21.890625 21.464844 20.984375 20.457031 20.328125 19.777344 C 19.863281 19.296875 19.550781 19.003906 19.308594 18.824219 C 19.128906 18.691406 18.992188 18.628906 18.851562 18.589844 C 18.226562 18.414062 17.765625 18.414062 17.140625 18.589844 C 17 18.628906 16.863281 18.691406 16.683594 18.824219 C 16.445312 19.003906 16.128906 19.296875 15.664062 19.777344 C 15.007812 20.457031 14.101562 21.464844 13.289062 22.371094 C 12.871094 22.835938 12.476562 23.273438 12.152344 23.628906 C 11.609375 24.222656 11.171875 24.613281 10.695312 24.886719 C 10.199219 25.171875 9.703125 25.308594 9.058594 25.378906 C 8.324219 25.460938 7.609375 25.445312 6.796875 25.429688 C 6.378906 25.421875 5.941406 25.414062 5.46875 25.417969 C 5.230469 25.417969 5.015625 25.3125 4.855469 25.140625 L 2.308594 22.367188 L 2.203125 22.253906 C 1.058594 20.945312 0.488281 19.234375 0.488281 17.519531 C 0.488281 15.808594 1.058594 14.097656 2.203125 12.789062 L 2.308594 12.675781 L 4.855469 9.902344 C 5.039062 9.703125 5.277344 9.613281 5.511719 9.625 C 5.96875 9.628906 6.394531 9.621094 6.796875 9.613281 C 7.609375 9.597656 8.324219 9.582031 9.058594 9.664062 C 9.703125 9.734375 10.199219 9.871094 10.695312 10.15625 C 11.171875 10.429688 11.609375 10.820312 12.152344 11.410156 C 12.476562 11.769531 12.871094 12.207031 13.289062 12.671875 C 14.101562 13.574219 15.007812 14.582031 15.664062 15.265625 C 16.128906 15.746094 16.445312 16.039062 16.683594 16.21875 C 16.863281 16.351562 17 16.414062 17.140625 16.453125 C 17.765625 16.628906 18.226562 16.628906 18.851562 16.453125 C 18.992188 16.414062 19.128906 16.351562 19.308594 16.21875 C 19.550781 16.039062 19.863281 15.746094 20.328125 15.265625 C 20.984375 14.582031 21.890625 13.574219 22.703125 12.671875 C 23.121094 12.207031 23.515625 11.769531 23.839844 11.410156 C 24.382812 10.820312 24.820312 10.429688 25.296875 10.15625 C 25.792969 9.871094 26.289062 9.734375 26.933594 9.664062 C 27.667969 9.582031 28.351562 9.597656 29.140625 9.613281 C 29.546875 9.621094 29.980469 9.628906 30.453125 9.625 C 30.6875 9.625 30.902344 9.726562 31.058594 9.894531 Z M 25.746094 6.519531 L 21.105469 1.417969 C 20.246094 0.472656 19.121094 0 17.996094 0 C 16.871094 0 15.746094 0.472656 14.886719 1.417969 L 10.246094 6.519531 C 11.1875 6.617188 12.007812 6.941406 13.175781 7.941406 C 14.089844 8.722656 15.390625 10.039062 16.46875 11.125 C 16.890625 11.550781 17.273438 11.9375 17.628906 12.285156 C 17.765625 12.417969 17.886719 12.535156 17.996094 12.636719 C 18.105469 12.535156 18.226562 12.417969 18.363281 12.285156 C 18.71875 11.9375 19.101562 11.550781 19.523438 11.125 C 20.601562 10.039062 21.902344 8.722656 22.816406 7.941406 C 23.984375 6.941406 24.804688 6.617188 25.746094 6.519531 Z M 21.113281 33.617188 L 25.761719 28.625 C 24.808594 28.484375 23.988281 28.105469 22.816406 27.101562 C 21.902344 26.320312 20.601562 25.003906 19.523438 23.917969 C 19.105469 23.492188 18.722656 23.105469 18.363281 22.757812 C 18.226562 22.625 18.105469 22.507812 17.996094 22.40625 C 17.886719 22.507812 17.765625 22.625 17.628906 22.757812 C 17.273438 23.105469 16.890625 23.492188 16.46875 23.917969 C 15.390625 25.003906 14.089844 26.320312 13.175781 27.101562 C 12.003906 28.101562 11.214844 28.484375 10.285156 28.625 L 14.882812 33.621094 C 15.746094 34.558594 16.867188 35.027344 17.984375 35.027344 C 19.113281 35.027344 20.238281 34.554688 21.113281 33.617188 Z M 21.113281 33.617188 " fill-opacity="1" fill-rule="nonzero"/></g></svg>